<?xml version="1.0" standalone="no"?>
<!DOCTYPE svg PUBLIC "-//W3C//DTD SVG 20010904//EN"
 "http://www.w3.org/TR/2001/REC-SVG-20010904/DTD/svg10.dtd">
<svg version="1.0" xmlns="http://www.w3.org/2000/svg"
 width="1200.000000pt" height="300.000000pt" viewBox="0 0 1200.000000 300.000000"
 preserveAspectRatio="xMidYMid meet">

<g transform="translate(0.000000,300.000000) scale(0.100000,-0.100000)"
fill="#000000" stroke="none">
<path d="M4445 2916 c-114 -32 -181 -70 -254 -144 -116 -118 -161 -258 -161
-494 1 -216 47 -371 161 -540 45 -66 209 -234 446 -456 156 -145 223 -234 255
-335 16 -52 19 -84 16 -197 -5 -163 -22 -208 -97 -256 -42 -27 -54 -29 -136
-29 -82 0 -94 2 -136 29 -78 50 -108 144 -109 340 l0 88 -42 -6 c-24 -3 -97
-10 -163 -16 -66 -6 -137 -13 -157 -16 l-38 -6 0 -139 c0 -218 33 -341 122
-456 110 -143 284 -213 526 -213 230 0 373 49 491 167 78 78 119 152 147 263
16 62 19 109 18 275 -1 224 -14 297 -78 430 -71 150 -138 225 -558 630 -127
123 -150 150 -185 220 -92 181 -77 393 34 465 32 21 50 24 119 25 73 0 85 -3
123 -29 63 -44 83 -92 89 -208 4 -92 6 -98 26 -98 11 0 104 8 205 17 l184 17
-6 106 c-10 193 -60 323 -162 426 -73 72 -170 123 -282 148 -109 24 -297 20
-398 -8z"/>
<path d="M10928 2920 c-225 -56 -370 -199 -435 -430 -17 -61 -18 -125 -18
-992 0 -509 3 -929 6 -933 4 -3 78 -22 165 -41 375 -84 647 -181 846 -301 68
-41 73 -39 148 44 59 65 103 150 132 256 19 67 21 108 25 599 l5 528 -331 0
-331 0 0 -195 0 -195 121 0 121 0 -4 -307 c-3 -297 -4 -310 -26 -358 -48 -103
-91 -129 -219 -129 -87 -1 -94 1 -135 30 -58 43 -86 95 -99 190 -6 51 -9 358
-7 874 l3 795 29 62 c38 84 92 120 192 129 86 8 132 -5 185 -53 61 -56 81
-121 87 -291 l5 -144 86 6 c47 3 140 9 205 12 l119 7 -7 166 c-10 262 -54 390
-175 510 -125 126 -278 181 -496 180 -82 0 -144 -6 -197 -19z"/>
<path d="M190 1510 l0 -1400 200 0 200 0 1 973 c0 589 4 964 9 952 5 -11 84
-348 175 -750 91 -401 169 -740 172 -752 5 -22 9 -23 132 -23 l127 0 175 766
174 766 3 -966 2 -966 215 0 215 0 0 1400 0 1400 -287 -2 -286 -3 -153 -700
c-84 -385 -158 -725 -165 -755 -11 -49 -13 -52 -20 -30 -8 23 -329 1473 -329
1485 0 3 -126 5 -280 5 l-280 0 0 -1400z"/>
<path d="M2423 1743 c3 -1144 3 -1169 23 -1238 86 -291 293 -435 627 -435 337
0 545 144 631 435 20 68 20 95 23 1238 l4 1167 -211 0 -210 0 0 -1077 c0 -642
-4 -1105 -10 -1145 -13 -88 -43 -146 -93 -183 -40 -28 -48 -30 -138 -30 -88 0
-99 2 -137 28 -26 17 -52 46 -69 80 l-28 52 -3 1138 -2 1137 -206 0 -205 0 4
-1167z"/>
<path d="M5410 2710 l0 -200 225 0 225 0 0 -1161 0 -1160 43 26 c73 45 198
106 287 140 l85 33 3 1061 2 1061 230 0 230 0 0 200 0 200 -665 0 -665 0 0
-200z"/>
<path d="M7143 1738 c-112 -644 -202 -1173 -200 -1174 1 -1 79 11 172 27 94
15 184 28 202 29 38 0 43 7 52 68 l6 47 238 3 237 2 0 -31 0 -32 83 6 c45 4
138 9 207 13 l125 6 -190 1102 -190 1101 -270 3 -270 2 -202 -1172z m559 -15
c47 -324 85 -589 83 -591 -1 -1 -81 -1 -176 0 l-175 3 86 587 c47 324 88 588
91 588 3 0 44 -264 91 -587z"/>
<path d="M8670 1810 l0 -1100 163 0 c89 0 179 -3 200 -6 l37 -7 0 634 c0 348
4 629 8 624 5 -6 94 -294 197 -641 l189 -631 106 -7 c58 -4 186 -16 284 -26
99 -11 183 -20 188 -20 4 0 8 513 8 1140 l0 1140 -200 0 -200 0 -2 -837 -3
-837 -250 835 -250 834 -238 3 -237 2 0 -1100z"/>
</g>
</svg>
